# xmcd CD database file generated by Grip 2.95
# 
# Track frame offsets:
#       150
#       18722
#       35687
#       51129
#       68316
#       89379
#       106434
#       125032
#       140324
#       159523
#       177809
#       198677
# 
# Disc length: 2843 seconds
# 
# Revision: 3
# Processed by: cddbd v1.4b41PL1 Copyright (c) Steve Scherf et al.
# Submitted via: Grip 2.95
# 
DISCID=a50b190c
DTITLE=Peter Viskinde - Sheriff Songs
DYEAR=1900
DGENRE=
TTITLE0=Love Can't Be Found
TTITLE1=Paradise Coming Home To You
TTITLE2=Why Don't You Try Me
TTITLE3=Don't Run For The Money
TTITLE4=If You Need Me Now
TTITLE5=Halleluja
TTITLE6=Take The Time That You Need
TTITLE7=You Have To Come Alive
TTITLE8=I Have To Know
TTITLE9=Free To Go
TTITLE10=Love Makes You Blind
TTITLE11=Guarded By You
EXTD=
EXTT0=
EXTT1=
EXTT2=
EXTT3=
EXTT4=
EXTT5=
EXTT6=
EXTT7=
EXTT8=
EXTT9=
EXTT10=
EXTT11=
PLAYORDER=
